<svg width="28" height="28" viewBox="0 0 28 28" fill="none" xmlns="http://www.w3.org/2000/svg">
<path d="M8.40033 0.666504H19.6003C23.867 0.666504 27.3337 4.13317 27.3337 8.39984V19.5998C27.3337 21.6508 26.5189 23.6178 25.0686 25.0681C23.6183 26.5184 21.6513 27.3332 19.6003 27.3332H8.40033C4.13366 27.3332 0.666992 23.8665 0.666992 19.5998V8.39984C0.666992 6.34883 1.48175 4.38183 2.93203 2.93154C4.38231 1.48126 6.34932 0.666504 8.40033 0.666504ZM8.13366 3.33317C6.86062 3.33317 5.63972 3.83888 4.73955 4.73906C3.83937 5.63923 3.33366 6.86013 3.33366 8.13317V19.8665C3.33366 22.5198 5.48033 24.6665 8.13366 24.6665H19.867C21.14 24.6665 22.3609 24.1608 23.2611 23.2606C24.1613 22.3604 24.667 21.1395 24.667 19.8665V8.13317C24.667 5.47984 22.5203 3.33317 19.867 3.33317H8.13366ZM21.0003 5.33317C21.4424 5.33317 21.8663 5.50877 22.1788 5.82133C22.4914 6.13389 22.667 6.55781 22.667 6.99984C22.667 7.44186 22.4914 7.86579 22.1788 8.17835C21.8663 8.49091 21.4424 8.6665 21.0003 8.6665C20.5583 8.6665 20.1344 8.49091 19.8218 8.17835C19.5093 7.86579 19.3337 7.44186 19.3337 6.99984C19.3337 6.55781 19.5093 6.13389 19.8218 5.82133C20.1344 5.50877 20.5583 5.33317 21.0003 5.33317ZM14.0003 7.33317C15.7684 7.33317 17.4641 8.03555 18.7144 9.28579C19.9646 10.536 20.667 12.2317 20.667 13.9998C20.667 15.7679 19.9646 17.4636 18.7144 18.7139C17.4641 19.9641 15.7684 20.6665 14.0003 20.6665C12.2322 20.6665 10.5365 19.9641 9.28628 18.7139C8.03604 17.4636 7.33366 15.7679 7.33366 13.9998C7.33366 12.2317 8.03604 10.536 9.28628 9.28579C10.5365 8.03555 12.2322 7.33317 14.0003 7.33317ZM14.0003 9.99984C12.9395 9.99984 11.922 10.4213 11.1719 11.1714C10.4218 11.9216 10.0003 12.939 10.0003 13.9998C10.0003 15.0607 10.4218 16.0781 11.1719 16.8283C11.922 17.5784 12.9395 17.9998 14.0003 17.9998C15.0612 17.9998 16.0786 17.5784 16.8288 16.8283C17.5789 16.0781 18.0003 15.0607 18.0003 13.9998C18.0003 12.939 17.5789 11.9216 16.8288 11.1714C16.0786 10.4213 15.0612 9.99984 14.0003 9.99984Z" fill="#7FC234"/>
</svg>
