<svg width="25" height="24" viewBox="0 0 25 24" fill="none" xmlns="http://www.w3.org/2000/svg">
<path d="M21.8333 0.00012207C22.5406 0.00012207 23.2189 0.281074 23.719 0.781171C24.219 1.28127 24.5 1.95954 24.5 2.66679V21.3335C24.5 22.0407 24.219 22.719 23.719 23.2191C23.2189 23.7192 22.5406 24.0001 21.8333 24.0001H3.16667C2.45942 24.0001 1.78115 23.7192 1.28105 23.2191C0.780951 22.719 0.5 22.0407 0.5 21.3335V2.66679C0.5 1.95954 0.780951 1.28127 1.28105 0.781171C1.78115 0.281074 2.45942 0.00012207 3.16667 0.00012207H21.8333ZM21.1667 20.6668V13.6001C21.1667 12.4473 20.7087 11.3417 19.8936 10.5266C19.0784 9.71141 17.9728 9.25346 16.82 9.25346C15.6867 9.25346 14.3667 9.94679 13.7267 10.9868V9.50679H10.0067V20.6668H13.7267V14.0935C13.7267 13.0668 14.5533 12.2268 15.58 12.2268C16.0751 12.2268 16.5499 12.4235 16.8999 12.7735C17.25 13.1236 17.4467 13.5984 17.4467 14.0935V20.6668H21.1667ZM5.67333 7.41346C6.26742 7.41346 6.83717 7.17746 7.25725 6.75738C7.67733 6.33729 7.91333 5.76754 7.91333 5.17346C7.91333 3.93346 6.91333 2.92012 5.67333 2.92012C5.07571 2.92012 4.50257 3.15753 4.07999 3.58011C3.6574 4.00269 3.42 4.57583 3.42 5.17346C3.42 6.41346 4.43333 7.41346 5.67333 7.41346ZM7.52667 20.6668V9.50679H3.83333V20.6668H7.52667Z" fill="#1B0126"/>
</svg>
