<svg width="27" height="28" viewBox="0 0 27 28" fill="none" xmlns="http://www.w3.org/2000/svg">
<path d="M7.90033 0.666809H19.1003C23.367 0.666809 26.8337 4.13348 26.8337 8.40014V19.6001C26.8337 21.6511 26.0189 23.6182 24.5686 25.0684C23.1183 26.5187 21.1513 27.3335 19.1003 27.3335H7.90033C3.63366 27.3335 0.166992 23.8668 0.166992 19.6001V8.40014C0.166992 6.34913 0.981752 4.38213 2.43203 2.93185C3.88231 1.48157 5.84932 0.666809 7.90033 0.666809ZM7.63366 3.33348C6.36062 3.33348 5.13972 3.83919 4.23955 4.73936C3.33937 5.63954 2.83366 6.86044 2.83366 8.13348V19.8668C2.83366 22.5201 4.98033 24.6668 7.63366 24.6668H19.367C20.64 24.6668 21.8609 24.1611 22.7611 23.2609C23.6613 22.3607 24.167 21.1398 24.167 19.8668V8.13348C24.167 5.48014 22.0203 3.33348 19.367 3.33348H7.63366ZM20.5003 5.33348C20.9424 5.33348 21.3663 5.50907 21.6788 5.82163C21.9914 6.13419 22.167 6.55811 22.167 7.00014C22.167 7.44217 21.9914 7.86609 21.6788 8.17865C21.3663 8.49121 20.9424 8.66681 20.5003 8.66681C20.0583 8.66681 19.6344 8.49121 19.3218 8.17865C19.0093 7.86609 18.8337 7.44217 18.8337 7.00014C18.8337 6.55811 19.0093 6.13419 19.3218 5.82163C19.6344 5.50907 20.0583 5.33348 20.5003 5.33348ZM13.5003 7.33348C15.2684 7.33348 16.9641 8.03585 18.2144 9.2861C19.4646 10.5363 20.167 12.232 20.167 14.0001C20.167 15.7683 19.4646 17.4639 18.2144 18.7142C16.9641 19.9644 15.2684 20.6668 13.5003 20.6668C11.7322 20.6668 10.0365 19.9644 8.78628 18.7142C7.53604 17.4639 6.83366 15.7683 6.83366 14.0001C6.83366 12.232 7.53604 10.5363 8.78628 9.2861C10.0365 8.03585 11.7322 7.33348 13.5003 7.33348ZM13.5003 10.0001C12.4395 10.0001 11.422 10.4216 10.6719 11.1717C9.92175 11.9219 9.50033 12.9393 9.50033 14.0001C9.50033 15.061 9.92175 16.0784 10.6719 16.8286C11.422 17.5787 12.4395 18.0001 13.5003 18.0001C14.5612 18.0001 15.5786 17.5787 16.3288 16.8286C17.0789 16.0784 17.5003 15.061 17.5003 14.0001C17.5003 12.9393 17.0789 11.9219 16.3288 11.1717C15.5786 10.4216 14.5612 10.0001 13.5003 10.0001Z" fill="#1B0126"/>
</svg>
