<svg width="77" height="15" viewBox="0 0 77 15" fill="none" xmlns="http://www.w3.org/2000/svg">
<path d="M7.48116 1.59687C7.64447 1.09426 8.35553 1.09426 8.51884 1.59687L9.56137 4.80548C9.63441 5.03025 9.84387 5.18243 10.0802 5.18243H13.4539C13.9824 5.18243 14.2021 5.85869 13.7746 6.16932L11.0452 8.15234C10.854 8.29126 10.774 8.5375 10.847 8.76227L11.8896 11.9709C12.0529 12.4735 11.4776 12.8914 11.0501 12.5808L8.32066 10.5978C8.12945 10.4589 7.87055 10.4589 7.67934 10.5978L4.94994 12.5808C4.5224 12.8914 3.94714 12.4735 4.11045 11.9709L5.15299 8.76227C5.22602 8.5375 5.14601 8.29126 4.95481 8.15234L2.2254 6.16932C1.79786 5.85869 2.01759 5.18243 2.54606 5.18243H5.91979C6.15613 5.18243 6.36559 5.03025 6.43863 4.80548L7.48116 1.59687Z" fill="#65008F"/>
<path d="M22.4812 1.59687C22.6445 1.09426 23.3555 1.09426 23.5188 1.59687L24.5614 4.80548C24.6344 5.03025 24.8439 5.18243 25.0802 5.18243H28.4539C28.9824 5.18243 29.2021 5.85869 28.7746 6.16932L26.0452 8.15234C25.854 8.29126 25.774 8.5375 25.847 8.76227L26.8896 11.9709C27.0529 12.4735 26.4776 12.8914 26.0501 12.5808L23.3207 10.5978C23.1295 10.4589 22.8705 10.4589 22.6793 10.5978L19.9499 12.5808C19.5224 12.8914 18.9471 12.4735 19.1104 11.9709L20.153 8.76227C20.226 8.5375 20.146 8.29126 19.9548 8.15234L17.2254 6.16932C16.7979 5.85869 17.0176 5.18243 17.5461 5.18243H20.9198C21.1561 5.18243 21.3656 5.03025 21.4386 4.80548L22.4812 1.59687Z" fill="#65008F"/>
<path d="M37.4812 1.59687C37.6445 1.09426 38.3555 1.09426 38.5188 1.59687L39.5614 4.80548C39.6344 5.03025 39.8439 5.18243 40.0802 5.18243H43.4539C43.9824 5.18243 44.2021 5.85869 43.7746 6.16932L41.0452 8.15234C40.854 8.29126 40.774 8.5375 40.847 8.76227L41.8896 11.9709C42.0529 12.4735 41.4776 12.8914 41.0501 12.5808L38.3207 10.5978C38.1295 10.4589 37.8705 10.4589 37.6793 10.5978L34.9499 12.5808C34.5224 12.8914 33.9471 12.4735 34.1104 11.9709L35.153 8.76227C35.226 8.5375 35.146 8.29126 34.9548 8.15234L32.2254 6.16932C31.7979 5.85869 32.0176 5.18243 32.5461 5.18243H35.9198C36.1561 5.18243 36.3656 5.03025 36.4386 4.80548L37.4812 1.59687Z" fill="#65008F"/>
<path d="M52.4812 1.59687C52.6445 1.09426 53.3555 1.09426 53.5188 1.59687L54.5614 4.80548C54.6344 5.03025 54.8439 5.18243 55.0802 5.18243H58.4539C58.9824 5.18243 59.2021 5.85869 58.7746 6.16932L56.0452 8.15234C55.854 8.29126 55.774 8.5375 55.847 8.76227L56.8896 11.9709C57.0529 12.4735 56.4776 12.8914 56.0501 12.5808L53.3207 10.5978C53.1295 10.4589 52.8705 10.4589 52.6793 10.5978L49.9499 12.5808C49.5224 12.8914 48.9471 12.4735 49.1104 11.9709L50.153 8.76227C50.226 8.5375 50.146 8.29126 49.9548 8.15234L47.2254 6.16932C46.7979 5.85869 47.0176 5.18243 47.5461 5.18243H50.9198C51.1561 5.18243 51.3656 5.03025 51.4386 4.80548L52.4812 1.59687Z" fill="#65008F"/>
<path d="M67.4812 1.59687C67.6445 1.09426 68.3555 1.09426 68.5188 1.59687L69.5614 4.80548C69.6344 5.03025 69.8439 5.18243 70.0802 5.18243H73.4539C73.9824 5.18243 74.2021 5.85869 73.7746 6.16932L71.0452 8.15234C70.854 8.29126 70.774 8.5375 70.847 8.76227L71.8896 11.9709C72.0529 12.4735 71.4776 12.8914 71.0501 12.5808L68.3207 10.5978C68.1295 10.4589 67.8705 10.4589 67.6793 10.5978L64.9499 12.5808C64.5224 12.8914 63.9471 12.4735 64.1104 11.9709L65.153 8.76227C65.226 8.5375 65.146 8.29126 64.9548 8.15234L62.2254 6.16932C61.7979 5.85869 62.0176 5.18243 62.5461 5.18243H65.9198C66.1561 5.18243 66.3656 5.03025 66.4386 4.80548L67.4812 1.59687Z" fill="#65008F"/>
</svg>
